<svg xmlns="http://www.w3.org/2000/svg" viewBox="0 0 762 362.33"><defs><style>.cls-1{fill:#fff;}</style></defs><title>Asset 1</title><g id="Layer_2" data-name="Layer 2"><g id="Layer_1-2" data-name="Layer 1"><path class="cls-1" d="M231.3,135.25,293,73.57H470.3l-61.68,61.68H323.81l-15.42,15.42h69.39L316.1,212.35H293v15.42h30.84l92.52-92.52v92.52l-61.68,61.68H254.37L231.3,268.6Z"/><path class="cls-1" d="M532,135.25l61.68-61.68h92.52L578.24,181.51l50.12,50.11-46.26,46.26L532,227.76l-83.5,83H356L485.72,181.51l-50.11-50.11,46.26-46.26Z"/><polygon class="cls-1" points="762 0 347.94 0 269.4 0 259.7 0 154.2 106.67 154.2 196.93 138.78 212.34 138.78 112.12 77.1 173.8 77.1 227.76 61.68 227.76 61.68 166.09 150.22 77.54 103.96 31.28 0 135.25 0 289.44 154.2 289.44 215.88 227.76 215.88 132.85 286.25 62.06 698 62.06 762 0"/><path class="cls-1" d="M16.37,351.95A9.54,9.54,0,0,1,11,353.71c-3.48,0-6.05-2-6.05-6.73V333.29H1.51v-2.75H4.94v-6.23H8.42v6.23H16v2.75H8.42v13.1c0,2.89,1.13,4.07,3.16,4.07a8.12,8.12,0,0,0,3.79-1.22Z"/><path class="cls-1" d="M52.77,338.94v14.63H49.25V339.84c0-4.25-2.53-6.77-6.73-6.77-5.06,0-8,3.66-8,8.85v11.65H31V320.06h3.52v15.08c1.63-3.7,4.88-5.42,9.26-5.46C49.43,329.68,52.77,333.16,52.77,338.94Z"/><path class="cls-1" d="M90.17,343H70.75a8.4,8.4,0,0,0,8.63,7.77,10,10,0,0,0,7.36-3l1.94,2a12.63,12.63,0,0,1-9.57,3.93c-7,0-11.83-4.92-11.83-12s4.88-12,11.79-12C86.74,329.68,90.53,335,90.17,343ZM87,340.2c-.23-4.61-3.3-7.59-7.95-7.59a8,8,0,0,0-8.31,7.59Z"/><path class="cls-1" d="M148.48,329.82v23.76H145V348.2c-1.58,3.7-4.74,5.46-9,5.51-5.55,0-8.9-3.52-8.9-9.26V329.82h3.52v13.73c0,4.25,2.48,6.77,6.59,6.77,4.92-.09,7.81-3.7,7.81-8.85V329.82Z"/><path class="cls-1" d="M169.85,320.06v33.51h-3.52V320.06Z"/><path class="cls-1" d="M200,351.95a9.54,9.54,0,0,1-5.37,1.76c-3.48,0-6.05-2-6.05-6.73V333.29h-3.43v-2.75h3.43v-6.23H192v6.23h7.54v2.75H192v13.1c0,2.89,1.13,4.07,3.16,4.07a8.12,8.12,0,0,0,3.79-1.22Z"/><path class="cls-1" d="M218.36,323a2.31,2.31,0,1,1-4.61,0,2.31,2.31,0,1,1,4.61,0Zm-.54,6.82v23.76h-3.48V329.82Z"/><path class="cls-1" d="M274.77,338.94v14.63h-3.52V339.84c0-4.29-2.48-6.82-6.59-6.82-4.92.14-7.77,3.7-7.77,8.85v11.7h-3.57V339.84c0-4.29-2.44-6.82-6.59-6.82-4.88.14-7.81,3.7-7.81,8.85v11.7h-3.48V329.82h3.48v5.37c1.58-3.7,4.79-5.46,9.08-5.51,4.47,0,7.54,2.26,8.54,6.19,1.49-4.15,4.83-6.14,9.39-6.19C271.48,329.68,274.77,333.16,274.77,338.94Z"/><path class="cls-1" d="M306.39,353.57v-3.7c-1.9,2.57-4.92,3.84-8.72,3.84-4.92,0-8.08-3.12-8.08-7.18s3.3-6.77,8.9-6.82h7.81v-1.49c0-3.48-2.17-5.6-6.37-5.6a12.93,12.93,0,0,0-7.54,2.75l-1.49-2.48c3.07-2,5.65-3.21,9.71-3.21,5.87,0,9.12,3.12,9.17,8.17l0,15.72Zm0-8.17v-2.89h-7.41c-4,0-6.05,1.22-6.05,3.88s2.12,4.38,5.46,4.38C302.38,350.77,305.45,348.78,306.35,345.4Z"/><path class="cls-1" d="M339,351.95a9.54,9.54,0,0,1-5.37,1.76c-3.48,0-6.05-2-6.05-6.73V333.29h-3.43v-2.75h3.43v-6.23h3.48v6.23h7.54v2.75h-7.54v13.1c0,2.89,1.13,4.07,3.16,4.07a8.13,8.13,0,0,0,3.79-1.22Z"/><path class="cls-1" d="M373.52,343H354.1a8.4,8.4,0,0,0,8.63,7.77,10,10,0,0,0,7.36-3l1.94,2a12.63,12.63,0,0,1-9.57,3.93c-7,0-11.83-4.92-11.83-12s4.88-12,11.79-12C370.08,329.68,373.88,335,373.52,343Zm-3.16-2.8c-.23-4.61-3.3-7.59-7.95-7.59a8,8,0,0,0-8.31,7.59Z"/><path class="cls-1" d="M423.47,351.95a9.54,9.54,0,0,1-5.37,1.76c-3.48,0-6.05-2-6.05-6.73V333.29h-3.43v-2.75H412v-6.23h3.48v6.23h7.54v2.75h-7.54v13.1c0,2.89,1.13,4.07,3.16,4.07a8.12,8.12,0,0,0,3.79-1.22Z"/><path class="cls-1" d="M449.9,329.68v3.43c-5-.09-8.13,3-8.54,7.81v12.65h-3.52V329.82h3.52v5.28A8.89,8.89,0,0,1,449.9,329.68Z"/><path class="cls-1" d="M467.7,323a2.3,2.3,0,1,1-4.61,0,2.3,2.3,0,1,1,4.61,0Zm-.54,6.82v23.76h-3.48V329.82Z"/><path class="cls-1" d="M484.41,329.82,492,350l7.54-20.19h3.57l-9.35,23.76H490.1l-9.44-23.76Z"/><path class="cls-1" d="M520.32,323a2.3,2.3,0,1,1-4.61,0,2.3,2.3,0,1,1,4.61,0Zm-.54,6.82v23.76H516.3V329.82Z"/><path class="cls-1" d="M552.16,353.57v-3.7c-1.9,2.57-4.92,3.84-8.72,3.84-4.92,0-8.08-3.12-8.08-7.18s3.3-6.77,8.9-6.82h7.81v-1.49c0-3.48-2.17-5.6-6.37-5.6a12.93,12.93,0,0,0-7.54,2.75l-1.49-2.48c3.07-2,5.65-3.21,9.71-3.21,5.87,0,9.12,3.12,9.17,8.17l0,15.72Zm0-8.17v-2.89h-7.41c-4,0-6.05,1.22-6.05,3.88s2.12,4.38,5.46,4.38C548.14,350.77,551.21,348.78,552.11,345.4Z"/><path class="cls-1" d="M616.93,329.82v32.52h-3.52V348.47a9.93,9.93,0,0,1-9.26,5.28c-6.77,0-11.47-5-11.47-12.1s4.7-12,11.43-12a10,10,0,0,1,9.3,5.33v-5.15Zm-3.52,11.92c0-5.24-3.57-9-8.58-9s-8.63,3.79-8.63,9,3.57,9,8.63,9S613.41,347,613.41,341.74Z"/><path class="cls-1" d="M655.41,329.82v23.76h-3.52V348.2c-1.58,3.7-4.74,5.46-9,5.51-5.55,0-8.9-3.52-8.9-9.26V329.82h3.52v13.73c0,4.25,2.48,6.77,6.59,6.77,4.92-.09,7.81-3.7,7.81-8.85V329.82Z"/><path class="cls-1" d="M677.05,323a2.3,2.3,0,1,1-4.61,0,2.3,2.3,0,1,1,4.61,0Zm-.54,6.82v23.76H673V329.82Z"/><path class="cls-1" d="M711.33,329.82v2.62l-14.9,18.16,15.26,0v3l-19.51,0V351l14.9-18.16-14.5,0v-2.94Z"/></g></g></svg>