<svg xmlns="http://www.w3.org/2000/svg" viewBox="0 0 762 310.79"><defs><style>.cls-1{fill:#fff;}</style></defs><title>Asset 2</title><g id="Layer_2" data-name="Layer 2"><g id="Layer_1-2" data-name="Layer 1"><path class="cls-1" d="M231.3,135.25,293,73.57H470.3l-61.68,61.68H323.81l-15.42,15.42h69.39L316.1,212.35H293v15.42h30.84l92.52-92.52v92.52l-61.68,61.68H254.37L231.3,268.6Z"/><path class="cls-1" d="M532,135.25l61.68-61.68h92.52L578.24,181.51l50.12,50.11-46.26,46.26L532,227.76l-83.5,83H356L485.72,181.51l-50.11-50.11,46.26-46.26Z"/><polygon class="cls-1" points="762 0 347.94 0 269.4 0 259.7 0 154.2 106.67 154.2 196.93 138.78 212.34 138.78 112.12 77.1 173.8 77.1 227.76 61.68 227.76 61.68 166.09 150.22 77.54 103.96 31.28 0 135.25 0 289.44 154.2 289.44 215.88 227.76 215.88 132.85 286.25 62.06 698 62.06 762 0"/></g></g></svg>